<svg xmlns="http://www.w3.org/2000/svg" xmlns:xlink="http://www.w3.org/1999/xlink" version="1.1" width="3229.4309841821637" 
height="993.5121142360528" viewBox="0 0 3229.4309841821637 993.5121142360528">
  <g id="SvgjsG4814" featureKey="nRdZyp-0" transform="matrix(0.8357166516878466,0,0,0.8357166516878466,-4.26215524240862,-8.440738500847853)" fill="#017c70">
          <g xmlns="http://www.w3.org/2000/svg">
            <path d="M95,26.2c0-0.1,0-0.1,0-0.2c0,0,0,0,0-0.1c0,0,0-0.1-0.1-0.1c0,0,0,0,0,0c0,0-0.1-0.1-0.1-0.1c0,0,0,0-0.1,0c0,0,0,0,0,0   L50.2,10.1c-0.1,0-0.3,0-0.4,0L36,14.9l0,0l-13.2,4.6L5.4,25.7c0,0,0,0,0,0c0,0,0,0-0.1,0c0,0-0.1,0-0.1,0.1c0,0,0,0,0,0   c0,0-0.1,0.1-0.1,0.1c0,0,0,0,0,0.1c0,0.1,0,0.1,0,0.2c0,0,0,0,0,0c0,0,0,0,0,0v45.1c0,0.2,0.1,0.4,0.4,0.5l44.4,18c0,0,0,0,0,0   l0,0c0,0,0,0,0,0c0.1,0,0.1,0,0.2,0c0,0,0,0,0,0c0,0,0,0,0,0s0,0,0,0c0,0,0,0,0,0c0.1,0,0.1,0,0.2,0c0,0,0,0,0,0l0,0l0,0l44.4-18   c0.2-0.1,0.4-0.3,0.4-0.5V26.2C95,26.2,95,26.2,95,26.2C95,26.2,95,26.2,95,26.2z M50,11.2l42.7,15l-14.1,5.1c0,0-0.1,0-0.1,0   L37.3,15.7L50,11.2z M66.8,35.7L24.7,20.1l10.9-3.9L77,32L66.8,35.7z M77.8,32.9L77.9,49l-10.3,3.7l-0.2-16L77.8,32.9z M23,20.7   l42.1,15.6L50,41.8L7.3,26.3L23,20.7z M6.1,27.1l43.3,15.8v45.7L6.1,71V27.1z M50.6,88.5V42.9l15.7-5.7l0.2,16.4   c0,0.2,0.1,0.4,0.2,0.5c0.1,0.1,0.2,0.1,0.3,0.1c0.1,0,0.1,0,0.2,0L78.7,50c0.2-0.1,0.4-0.3,0.4-0.5L79,32.5l14.9-5.4V71L50.6,88.5   z">
            </path>
            <path d="M72.2,66.5c-0.3,0-0.6,0.3-0.6,0.6v9.1c0,0.3,0.3,0.6,0.6,0.6s0.6-0.3,0.6-0.6v-9.1C72.8,66.8,72.5,66.5,72.2,66.5z">
            </path>
            <path d="M79.7,63.7c-0.3,0-0.6,0.3-0.6,0.6v8.9c0,0.3,0.3,0.6,0.6,0.6c0.3,0,0.6-0.3,0.6-0.6v-8.9C80.2,63.9,80,63.7,79.7,63.7z">
            </path>
            <path d="M63,70c-0.3,0-0.6,0.3-0.6,0.6v9.3c0,0.3,0.3,0.6,0.6,0.6c0.3,0,0.6-0.3,0.6-0.6v-9.3C63.6,70.3,63.3,70,63,70z">
            </path>
            <path d="M83.3,62.3c-0.3,0-0.6,0.3-0.6,0.6v8.7c0,0,0,0.1,0,0.1c0,0.3,0.3,0.5,0.6,0.5c0,0,0,0,0,0c0.3,0,0.6-0.3,0.5-0.6l0-8.7   C83.8,62.6,83.6,62.3,83.3,62.3z">
            </path>
            <path d="M75.3,65.4c-0.3,0-0.6,0.3-0.6,0.6v9c0,0.3,0.3,0.6,0.6,0.6c0.3,0,0.6-0.3,0.6-0.6v-9C75.9,65.6,75.6,65.4,75.3,65.4z">
            </path>
            <path d="M66.1,68.9c-0.3,0-0.6,0.3-0.6,0.6v9.2c0,0.3,0.3,0.6,0.6,0.6s0.6-0.3,0.6-0.6v-9.2C66.6,69.1,66.4,68.9,66.1,68.9z">
            </path>
          </g>
        </g>
</svg>